<?xml version="1.0" encoding="UTF-8"?>
<svg width="22px" height="20px" viewBox="0 0 22 20" version="1.1" xmlns="http://www.w3.org/2000/svg"
	 xmlns:xlink="http://www.w3.org/1999/xlink">
	<!-- Generator: Sketch 53.2 (72643) - https://sketchapp.com -->
	<title>money_transfer_28</title>
	<desc>Created with Sketch.</desc>
	<defs>
		<path
			d="M16.7727273,17.6864939 L16.7727273,14.8111369 C16.7727273,14.5462285 16.987478,14.3314778 17.2523864,14.3314778 C17.3666595,14.3314778 17.4771784,14.3722751 17.5640433,14.4465237 L22.0734321,18.3009696 C22.2748024,18.4730929 22.2985118,18.7758694 22.1263885,18.9772397 C22.1101435,18.996245 22.0924374,19.0139511 22.0734321,19.0301961 L17.5640433,22.884642 C17.3626729,23.0567653 17.0598965,23.033056 16.8877731,22.8316856 C16.8135245,22.7448208 16.7727273,22.6343019 16.7727273,22.5200287 L16.7727273,19.6446717 L4.37795455,19.6446717 C2.78850414,19.6446717 1.5,18.3561676 1.5,16.7667172 L1.5,5.87795455 C1.5,4.28850414 2.78850414,3 4.37795455,3 L19.6220455,3 C21.2114959,3 22.5,4.28850414 22.5,5.87795455 L22.5,15.4793625 L20.5909091,13.8475476 L20.5909091,9.82707983 L3.40909091,9.82707983 L3.40909091,16.7271757 C3.40909091,17.2569925 3.83859229,17.6864939 4.36840909,17.6864939 L16.7727273,17.6864939 Z M20.5909091,7.89560483 L20.5909091,5.91765629 C20.5909091,5.38783949 20.1614077,4.95833811 19.6315909,4.95833811 L4.36840909,4.95833811 C3.83859229,4.95833811 3.40909091,5.38783949 3.40909091,5.91765629 L3.40909091,7.89560483 L20.5909091,7.89560483 Z"
			id="path-1"></path>
	</defs>
	<g id="Page-1" stroke="none" stroke-width="1" fill="none" fill-rule="evenodd">
		<g id="web" transform="translate(-351.000000, -273.000000)">
			<g id="Group-9" transform="translate(350.000000, 264.000000)">
				<g id="money_transfer_28" transform="translate(0.000000, 6.000000)">
					<rect id="Bounds" x="0" y="0" width="24" height="24"></rect>
					<mask id="mask-2" fill="white">
						<use xlink:href="#path-1"></use>
					</mask>
					<use id="Icon" fill="#792EC0" fill-rule="nonzero" xlink:href="#path-1"></use>
				</g>
			</g>
		</g>
	</g>
</svg>
