<?xml version="1.0" encoding="UTF-8"?>
<svg width="24px" height="16px" viewBox="0 0 24 16" version="1.1" xmlns="http://www.w3.org/2000/svg"
	 xmlns:xlink="http://www.w3.org/1999/xlink">
	<!-- Generator: Sketch 53.2 (72643) - https://sketchapp.com -->
	<title>Group 4</title>
	<desc>Created with Sketch.</desc>
	<defs>
		<path
			d="M19.3333333,4.13333333 C19.3333333,2.73349447 18.1998389,1.6 16.8,1.6 C15.4001611,1.6 14.2666667,2.73349447 14.2666667,4.13333333 C14.2666667,5.5331722 15.4001611,6.66666667 16.8,6.66666667 C18.1998389,6.66666667 19.3333333,5.5331722 19.3333333,4.13333333 Z M11.4706276,14.7555557 L14.1372943,14.7555557 L14.1372943,15.6444446 L11.4706276,15.6444446 L11.4706276,14.7555557 Z M20.9333333,4.13333333 C20.9333333,6.4168278 19.0834945,8.26666667 16.8,8.26666667 C14.5165055,8.26666667 12.6666667,6.4168278 12.6666667,4.13333333 C12.6666667,1.84983887 14.5165055,-2.84217094e-14 16.8,-2.84217094e-14 C19.0834945,-2.84217094e-14 20.9333333,1.84983887 20.9333333,4.13333333 Z M13.3403733,14.0444392 L21.924183,14.0444392 C22.3029034,14.0444392 22.2222222,14.1310376 22.2222222,13.4476138 C22.2222222,11.7653113 19.7527175,10.7555503 16.8,10.7555503 C15.6372508,10.7555503 14.1981784,11.0846975 12.4827827,11.742992 M11.4706276,10.4398054 C12.7786196,9.56723213 14.7133175,9.1555503 16.8,9.1555503 C20.5575221,9.1555503 23.8222222,10.4904605 23.8222222,13.4476138 C23.8222222,14.9903804 23.2128555,15.6444392 21.924183,15.6444392 C18.1659866,15.6444392 15.3473393,15.6444392 13.4682411,15.6444392"
			id="path-1"></path>
	</defs>
	<g id="Page-1" stroke="none" stroke-width="1" fill="none" fill-rule="evenodd">
		<g id="web" transform="translate(-350.000000, -392.000000)">
			<g id="Group-7" transform="translate(350.000000, 382.000000)">
				<g id="Group-4" transform="translate(0.000000, 5.000000)">
					<polygon id="Bounds" opacity="0.100000001"
							 points="0.9 0.700000191 24.9 0.700000191 24.9 24.7000002 0.9 24.7000002"></polygon>
					<g id="Group-6" transform="translate(0.000000, 5.000000)">
						<path
							d="M9.55555556,4.13333333 C9.55555556,2.73349447 8.42206109,1.6 7.02222222,1.6 C5.62238336,1.6 4.48888889,2.73349447 4.48888889,4.13333333 C4.48888889,5.5331722 5.62238336,6.66666667 7.02222222,6.66666667 C8.42206109,6.66666667 9.55555556,5.5331722 9.55555556,4.13333333 Z M11.1555556,4.13333333 C11.1555556,6.4168278 9.30571669,8.26666667 7.02222222,8.26666667 C4.73872776,8.26666667 2.88888889,6.4168278 2.88888889,4.13333333 C2.88888889,1.84983887 4.73872776,-2.48689958e-14 7.02222222,-2.48689958e-14 C9.30571669,-2.48689958e-14 11.1555556,1.84983887 11.1555556,4.13333333 Z M1.6,13.4476138 C1.6,14.1310376 1.51931885,14.0444392 1.89803922,14.0444392 L12.1464052,14.0444392 C12.5251256,14.0444392 12.4444444,14.1310376 12.4444444,13.4476138 C12.4444444,11.7653113 9.97493972,10.7555503 7.02222222,10.7555503 C4.06950472,10.7555503 1.6,11.7653113 1.6,13.4476138 Z M9.05941988e-14,13.4476138 C9.05941988e-14,10.4904605 3.26470007,9.1555503 7.02222222,9.1555503 C10.7797444,9.1555503 14.0444444,10.4904605 14.0444444,13.4476138 C14.0444444,14.9903804 13.4350777,15.6444392 12.1464052,15.6444392 L1.89803922,15.6444392 C0.609366696,15.6444392 9.05941988e-14,14.9903804 9.05941988e-14,13.4476138 Z"
							id="Icon" fill="#FA7253" fill-rule="nonzero"></path>
						<mask id="mask-2" fill="white">
							<use xlink:href="#path-1"></use>
						</mask>
						<use id="Icon-Copy" fill="#FA7253" fill-rule="nonzero" xlink:href="#path-1"></use>
					</g>
				</g>
			</g>
		</g>
	</g>
</svg>
